<?xml version="1.0" encoding="UTF-8" standalone="no"?>
<svg
   xmlns:dc="http://purl.org/dc/elements/1.1/"
   xmlns:cc="http://creativecommons.org/ns#"
   xmlns:rdf="http://www.w3.org/1999/02/22-rdf-syntax-ns#"
   xmlns:svg="http://www.w3.org/2000/svg"
   xmlns="http://www.w3.org/2000/svg"
   xmlns:sodipodi="http://sodipodi.sourceforge.net/DTD/sodipodi-0.dtd"
   xmlns:inkscape="http://www.inkscape.org/namespaces/inkscape"
   id="bb8a6def-7b5f-4977-9cdb-6ed5386a2dfe"
   data-name="Layer 1"
   width="400"
   height="268.10483"
   viewBox="0 0 399.99999 268.10483"
   version="1.1"
   sodipodi:docname="emptyState2.svg"
   inkscape:version="0.92.5 (2060ec1f9f, 2020-04-08)">
  <metadata
     id="metadata115">
    <rdf:RDF>
      <cc:Work
         rdf:about="">
        <dc:format>image/svg+xml</dc:format>
        <dc:type
           rdf:resource="http://purl.org/dc/dcmitype/StillImage" />
        <dc:title></dc:title>
      </cc:Work>
    </rdf:RDF>
  </metadata>
  <defs
     id="defs113" />
  <sodipodi:namedview
     pagecolor="#ffffff"
     bordercolor="#666666"
     borderopacity="1"
     objecttolerance="10"
     gridtolerance="10"
     guidetolerance="10"
     inkscape:pageopacity="0"
     inkscape:pageshadow="2"
     inkscape:window-width="1920"
     inkscape:window-height="1015"
     id="namedview111"
     showgrid="false"
     inkscape:zoom="1.1741274"
     inkscape:cx="415.62642"
     inkscape:cy="58.206703"
     inkscape:window-x="0"
     inkscape:window-y="0"
     inkscape:window-maximized="1"
     inkscape:current-layer="bb8a6def-7b5f-4977-9cdb-6ed5386a2dfe" />
  <path
     d="m 400,142.4936 c 0,54.22981 -34.37172,100.43564 -82.51502,118.01743 a 124.21965,124.21965 0 0 1 -22.57972,5.92657 126.45923,126.45923 0 0 1 -63.07954,-5.72863 c -48.44789,-17.43712 -83.07094,-63.79906 -83.04803,-118.24199 0,-69.344967 56.23955,-125.584537 125.61113,-125.584537 a 125.06437,125.06437 0 0 1 73.08676,23.4474 C 379.27796,63.114993 400,100.38341 400,142.4936 Z"
     id="path85"
     inkscape:connector-curvature="0"
     style="fill:#e5e5e5;stroke-width:0.38063964" />
  <path
     d="m 317.48497,260.51103 a 124.21965,124.21965 0 0 1 -22.57973,5.92657 126.45923,126.45923 0 0 1 -63.07954,-5.72864 l 5.80086,-23.27613 0.35021,-1.39695 11.83793,0.0457 59.47127,0.21312 0.76127,2.24959 z"
     id="path87"
     inkscape:connector-curvature="0"
     style="fill:#2f2e41;stroke-width:0.38063964" />
  <rect
     id="effaf695-3865-40c6-8918-ced0238239c2"
     data-name="Rectangle 25"
     width="109.11073"
     height="123.46256"
     x="0"
     y="0"
     style="fill:#e6e6e6;stroke-width:0.38063964" />
  <rect
     id="f33d627f-c769-4bde-9d74-ef156faf640e"
     data-name="Rectangle 25-2"
     x="1.9454505"
     y="2.611969"
     width="105.0293"
     height="118.23885"
     style="fill:#ffffff;stroke-width:0.38063964" />
  <circle
     id="b5fd4af9-5b07-4da2-8ccf-5b3d4ac887f6"
     data-name="Ellipse 116"
     cx="54.555561"
     cy="110.7594"
     r="5.8873591"
     style="fill:#e6e6e6;stroke-width:0.38063964" />
  <rect
     id="f05405a0-af73-4807-bbd1-d761cdd06c65"
     data-name="Rectangle 31"
     x="19.746082"
     y="44.465973"
     width="33.814915"
     height="3.459254"
     style="fill:#e6e6e6;stroke-width:0.38063964" />
  <rect
     id="a05e4a04-50b7-46b0-b842-8db21044ae7a"
     data-name="Rectangle 32"
     x="19.746082"
     y="54.831909"
     width="51.035839"
     height="3.459254"
     style="fill:#f9a826;stroke-width:0.38063964" />
  <rect
     id="bdce3bac-3998-4a72-bc14-4aa79023038d"
     data-name="Rectangle 38"
     x="19.746082"
     y="65.26297"
     width="46.026241"
     height="3.459254"
     style="fill:#e6e6e6;stroke-width:0.38063964" />
  <rect
     id="e1177af0-2f80-4461-b67e-43945f3b6fee"
     data-name="Rectangle 39"
     x="19.746082"
     y="75.418488"
     width="71.074295"
     height="3.459254"
     style="fill:#f9a826;stroke-width:0.38063964" />
  <rect
     id="b290cdc3-2096-427b-bfd4-6b657da823ea"
     data-name="Rectangle 40"
     x="20.484913"
     y="85.09021"
     width="57.923882"
     height="3.459254"
     style="fill:#e6e6e6;stroke-width:0.38063964" />
  <g
     id="b96c6486-fa38-4cba-8e5e-13dca7f44a0c"
     data-name="Group 52"
     transform="matrix(0.38063991,0,0,0.38063991,0,3.1249999e-6)">
    <path
       id="b0fbfc35-67c9-42b4-b2fe-33d0d7288754"
       data-name="Path 846"
       d="m 482.17805,625.61438 a 29.75626,29.75626 0 0 1 2.991,3.6 l 140.109,-3.428 16.345,-29.868 48.3,18.776 -23.8,55.687 a 22.609,22.609 0 0 1 -23.5,13.561 l -158.3,-19.123 a 29.665,29.665 0 1 1 -2.15,-39.211 z"
       transform="translate(-74.56905,-97.82358)"
       inkscape:connector-curvature="0"
       style="fill:#9f616a" />
    <path
       id="a6a8f1c9-3ab8-4f6f-ba9b-45acc2f7af89"
       data-name="Path 852"
       d="m 670.75807,455.06457 65.569,-21.489 19.258,-26.411 93.716,5.546 13.759,30.82 49.972,23.613 -7.68,142.624 -13.138,133.477 c -67.558,-34.983 -193.63907,-8.31221 -194.74307,-7.87819 z"
       transform="translate(-74.56905,-97.82358)"
       inkscape:connector-curvature="0"
       style="fill:#f9a826" />
    <path
       id="fc06e97d-785e-4845-9aa0-60a5889f9ce3"
       data-name="Path 853"
       d="m 684.775,648.11407 -66.694,-26.684 0.284,-1.187 c 0.286,-1.2 28.672,-119.817 32.441,-138.879 3.926,-19.859 18.271,-25.35 18.88,-25.573 l 0.445,-0.164 26.394,8.034 11.592,91.081 z"
       transform="translate(-74.56905,-97.82358)"
       inkscape:connector-curvature="0"
       style="fill:#f9a826" />
    <path
       id="b248559b-61d8-49e2-8eef-81cc9521c19e"
       data-name="Path 855"
       d="m 828.7801,737.37719 a 29.72053,29.72053 0 0 1 4.677,0.258 l 92.747,-105.072 -10.788,-32.286 46.608,-22.652 24.655,55.313 a 22.608,22.608 0 0 1 -6.034,26.453 l -121.65,103.073 a 29.6649,29.6649 0 1 1 -30.215,-25.087 z"
       transform="translate(-74.56905,-97.82358)"
       inkscape:connector-curvature="0"
       style="fill:#9f616a" />
    <path
       id="b0e9bc84-32e8-4599-bd8d-d35670d3692b"
       data-name="Path 856"
       d="m 918.801,642.79113 -38.689,-91.006 15.09,-63.391 16.259,-20.541 a 9.36609,9.36609 0 0 1 7.524,0.07 c 6,2.413 11.1,9.81 15.177,21.984 l 36.259,103.279 z"
       transform="translate(-74.56905,-97.82358)"
       inkscape:connector-curvature="0"
       style="fill:#f9a826" />
    <path
       id="b58b0f1b-b11b-4f57-8de2-a939101b4938"
       data-name="Path 857"
       d="m 718.072,373.4422 v -68.61 a 91.938005,91.938005 0 1 1 183.875,-0.60916 q 10e-4,0.30455 0,0.60916 v 68.61 a 12.364,12.364 0 0 1 -12.35,12.35 H 730.422 a 12.364,12.364 0 0 1 -12.35,-12.35 z"
       transform="translate(-74.56905,-97.82358)"
       inkscape:connector-curvature="0"
       style="fill:#2f2e41" />
    <circle
       id="ba54abe3-4119-45e5-b5c1-150877d750f7"
       data-name="Ellipse 148"
       cx="716.54791"
       cy="218.96507"
       r="67.404999"
       style="fill:#9f616a" />
    <path
       id="b6bcc4bf-1738-426f-8fbf-3ee273a728b5"
       data-name="Path 858"
       d="m 696.322,310.32116 a 72.809,72.809 0 0 1 72.727,-72.727 h 13.723 a 72.808,72.808 0 0 1 72.726,72.727 v 1.372 h -29 l -9.891,-27.7 -1.978,27.7 h -14.986 l -4.99,-13.974 -1,13.974 h -97.331 z"
       transform="translate(-74.56905,-97.82358)"
       inkscape:connector-curvature="0"
       style="fill:#2f2e41" />
    <path
       id="be96ad09-85ff-4345-abef-5a49918f7c18"
       data-name="Path 859"
       d="m 784.484,393.508 a 12.16709,12.16709 0 0 1 -0.967,-12.918 c 14.541,-27.658 34.9,-78.765 7.877,-110.283 l -1.938,-2.262 h 78.456 v 117.79 l -71.271,12.575 a 12.60771,12.60771 0 0 1 -2.185,0.193 12.3,12.3 0 0 1 -9.967,-5.092 z"
       transform="translate(-74.56905,-97.82358)"
       inkscape:connector-curvature="0"
       style="fill:#2f2e41" />
  </g>
  <g
     id="b2dad932-78e1-44e1-9682-073c8202f887"
     data-name="Group 51"
     transform="matrix(0.38063991,0,0,0.38063991,0,3.1249999e-6)">
    <path
       id="e043db59-b600-449e-8c52-e1eb73379667"
       data-name="Path 341"
       d="M 217.64577,123.08567 A 32.89091,32.89091 0 1 0 250.535,155.9783 v -0.002 a 32.89088,32.89088 0 0 0 -32.89091,-32.89091 z m 0,9.86638 a 9.8664,9.8664 0 1 1 -9.86636,9.86644 v 0 a 9.86643,9.86643 0 0 1 9.86636,-9.86644 z m 0,47.50128 a 23.961,23.961 0 0 1 -19.73454,-10.53178 c 0.15847,-6.57819 13.15636,-10.1991 19.73454,-10.1991 6.57818,0 19.57608,3.62091 19.73455,10.1991 a 23.99974,23.99974 0 0 1 -19.73455,10.53178 z"
       transform="translate(-74.56905,-97.82358)"
       inkscape:connector-curvature="0"
       style="fill:#f9a826" />
  </g>
  <path
     id="bcfa45dc-2c5a-4ac5-8376-9a2a23e225d0"
     data-name="Path 842"
     d="m 54.606252,113.01616 c 5.157661,-9.45163 17.513213,-15.437227 27.620325,-10.04205 4.549463,2.42816 8.165869,6.72325 9.313855,11.79984 1.332265,5.89729 -1.474962,11.52045 -4.372726,16.47486 -1.572846,2.68922 -3.296387,5.32363 -4.598122,8.16016 -1.347917,2.93742 -2.311232,6.33233 -1.296506,9.5278 0.913532,2.87878 3.204233,4.97271 5.712636,6.5116 a 42.566323,42.566323 0 0 0 8.777977,3.92059 51.669064,51.669064 0 0 0 19.597229,2.53547 53.59512,53.59512 0 0 0 9.76724,-1.57894 c 3.40406,-0.86784 6.74452,-1.96785 10.15433,-2.81668 5.69286,-1.41411 12.18386,-2.11712 17.58209,0.72321 5.24448,2.76041 7.59155,8.53352 8.31735,14.14989 1.34067,10.37094 -2.77138,21.13315 -10.1958,28.39572 -3.56204,3.48439 -8.04446,6.36317 -12.92646,7.5409 -4.25979,1.02772 -9.72958,0.96189 -13.11961,-2.22259 -3.78276,-3.55403 -2.8928,-9.25293 0.11159,-13.00266 3.83496,-4.78423 10.33166,-5.93337 16.12917,-6.04984 6.59505,-0.13248 13.18391,0.84954 19.77504,0.23904 a 30.374682,30.374682 0 0 0 9.35156,-2.25569 23.697731,23.697731 0 0 0 7.04754,-4.76907 c 4.06903,-3.95331 6.8135,-9.21982 8.17809,-14.6957 1.64324,-6.58511 1.28506,-13.50591 0.01,-20.12025 a 90.729655,90.729655 0 0 0 -2.62181,-10.08963 c -0.4404,-1.39695 -2.64624,-0.79934 -2.20239,0.60713 3.92823,12.45602 6.11839,26.85905 -1.47115,38.42405 a 22.879228,22.879228 0 0 1 -13.68134,9.84831 c -6.56874,1.63255 -13.46138,0.82558 -20.13932,0.58273 -6.34983,-0.23103 -13.32241,0.0184 -18.76557,3.71657 -4.46526,3.03336 -7.58841,8.80306 -6.23868,14.25002 1.30146,5.25287 6.3495,7.9173 11.39825,8.32767 5.29741,0.43161 10.51029,-1.34631 14.95924,-4.12654 9.25443,-5.78303 15.40786,-15.95374 16.69557,-26.73694 0.67106,-5.61858 -0.0119,-11.67078 -2.55981,-16.77056 a 16.418198,16.418198 0 0 0 -6.03199,-6.72248 c -2.59216,-1.58916 -5.58625,-2.37141 -8.59333,-2.64813 -6.83169,-0.62918 -13.39546,1.71629 -19.87624,3.51063 a 55.11602,55.11602 0 0 1 -10.13571,1.93482 50.618473,50.618473 0 0 1 -10.00017,-0.16292 49.241406,49.241406 0 0 1 -9.689957,-2.15061 38.784395,38.784395 0 0 1 -8.795836,-3.97658 c -2.430357,-1.55413 -4.532304,-3.78009 -4.651823,-6.81347 -0.129744,-3.28905 1.528682,-6.36576 3.106093,-9.13874 3.116283,-5.47778 6.965699,-10.83567 7.778323,-17.24834 0.711858,-5.6095 -1.545375,-11.13824 -5.443163,-15.13915 A 20.467386,20.467386 0 0 0 73.456814,98.644763 c -5.783113,0.16554 -11.320235,2.680397 -15.573905,6.542797 a 25.639141,25.639141 0 0 0 -5.25285,6.6726 c -0.704534,1.29078 1.266809,2.44448 1.972111,1.15258 z"
     inkscape:connector-curvature="0"
     style="fill:#3f3d56;stroke-width:0.38063964" />
</svg>
